<?xml version="1.0" encoding="iso-8859-1"?>
<!-- Generator: Adobe Illustrator 18.0.0, SVG Export Plug-In . SVG Version: 6.00 Build 0)  -->
<!DOCTYPE svg PUBLIC "-//W3C//DTD SVG 1.1//EN" "http://www.w3.org/Graphics/SVG/1.1/DTD/svg11.dtd">
<svg version="1.1" id="Capa_1" xmlns="http://www.w3.org/2000/svg" xmlns:xlink="http://www.w3.org/1999/xlink" x="0px" y="0px"
	 viewBox="0 0 366.135 366.135" style="enable-background:new 0 0 366.135 366.135;" xml:space="preserve">
<g>
	<g>
		<g>
			<g>
				<path d="M172.131,195.698c-4.142,0-7.5-3.357-7.5-7.5c0-7.752-3.436-11.352-8.191-16.334
					c-5.498-5.761-12.342-12.93-12.342-26.69c0-13.762,6.844-20.932,12.342-26.692c4.756-4.982,8.191-8.582,8.191-16.334
					c0-7.751-3.436-11.351-8.191-16.333c-5.498-5.761-12.342-12.93-12.342-26.689c0-13.761,6.844-20.93,12.342-26.691
					c4.756-4.981,8.191-8.581,8.191-16.331c0-4.143,3.358-7.5,7.5-7.5c4.143,0,7.5,3.357,7.5,7.5
					c0,13.76-6.842,20.928-12.341,26.688c-4.756,4.982-8.192,8.582-8.192,16.333c0,7.75,3.437,11.35,8.191,16.332
					c5.499,5.761,12.342,12.93,12.342,26.69c0,13.761-6.842,20.931-12.34,26.691c-4.757,4.982-8.193,8.583-8.193,16.335
					c0,7.751,3.437,11.351,8.192,16.333c5.498,5.761,12.341,12.93,12.341,26.691C179.631,192.341,176.274,195.698,172.131,195.698z"
					/>
			</g>
			<g>
				<path d="M210.535,187.096c-4.143,0-7.5-3.357-7.5-7.5c0-7.752-3.437-11.353-8.193-16.335
					c-5.498-5.761-12.34-12.931-12.34-26.691c0-13.76,6.842-20.929,12.34-26.689c4.756-4.982,8.193-8.583,8.193-16.335
					c0-7.752-3.437-11.352-8.193-16.334c-5.498-5.761-12.34-12.93-12.34-26.689c0-13.761,6.843-20.93,12.342-26.69
					c4.755-4.981,8.191-8.581,8.191-16.331c0-4.143,3.357-7.5,7.5-7.5c4.142,0,7.5,3.357,7.5,7.5
					c0,13.76-6.844,20.928-12.342,26.688c-4.756,4.982-8.192,8.582-8.192,16.333c0,7.75,3.436,11.35,8.192,16.332
					c5.498,5.761,12.342,12.93,12.342,26.691s-6.844,20.932-12.342,26.692c-4.756,4.982-8.192,8.582-8.192,16.332
					c0,7.752,3.436,11.352,8.192,16.334c5.498,5.761,12.342,12.931,12.342,26.692C218.035,183.738,214.677,187.096,210.535,187.096z
					"/>
			</g>
		</g>
		<g>
			<g>
				<path d="M125.127,310.311c-1.346,0-2.707-0.362-3.936-1.121c-21.034-13.004-35.526-33.815-41.91-60.186
					c-0.975-4.026,1.499-8.079,5.524-9.054c4.027-0.975,8.08,1.499,9.055,5.525c5.435,22.452,17.613,40.072,35.219,50.955
					c3.523,2.179,4.613,6.801,2.436,10.323C130.096,309.049,127.641,310.311,125.127,310.311z"/>
			</g>
			<path d="M312.455,207.216H53.679c-4.142,0-7.5,3.357-7.5,7.5c0,29.565,7.217,56.815,20.871,78.804
				c13.565,21.848,33.323,38.113,57.333,47.284v17.831c0,4.143,3.358,7.5,7.5,7.5h102.369c4.142,0,7.5-3.357,7.5-7.5v-17.832
				c24.01-9.17,43.766-25.435,57.332-47.283c13.654-21.988,20.871-49.238,20.871-78.804
				C319.955,210.573,316.597,207.216,312.455,207.216z M139.383,351.135v-8.301h87.369v8.301H139.383z M233.566,327.834H132.569
				c-42.685-14.935-68.913-54.035-71.223-105.618h243.442C302.479,273.799,276.25,312.899,233.566,327.834z"/>
		</g>
	</g>
</g>
<g>
</g>
<g>
</g>
<g>
</g>
<g>
</g>
<g>
</g>
<g>
</g>
<g>
</g>
<g>
</g>
<g>
</g>
<g>
</g>
<g>
</g>
<g>
</g>
<g>
</g>
<g>
</g>
<g>
</g>
</svg>
