<?xml version="1.0" encoding="iso-8859-1"?>
<!-- Generator: Adobe Illustrator 18.1.1, SVG Export Plug-In . SVG Version: 6.00 Build 0)  -->
<svg version="1.1" id="Capa_1" xmlns="http://www.w3.org/2000/svg" xmlns:xlink="http://www.w3.org/1999/xlink" x="0px" y="0px"
	 viewBox="0 0 476.691 476.691" style="enable-background:new 0 0 476.691 476.691;" xml:space="preserve">
<g>
	<g>
		<path style="fill:#010002;" d="M76.473,375.831c-28.393,10.624-45.406,24.093-45.406,38.765
			c0,34.294,92.804,62.094,207.279,62.094s207.279-27.8,207.279-62.094c0-14.672-17.013-28.141-45.406-38.765
			c-9.649,8.86-20.037,16.907-31.035,24.109c17.728,4.788,30.604,10.039,38.229,14.656c-20.582,12.453-79.262,29.58-169.066,29.58
			s-148.485-17.135-169.066-29.58c7.625-4.609,20.508-9.868,38.229-14.656C96.51,392.739,86.122,384.692,76.473,375.831z"/>
		<path style="fill:#010002;" d="M6.917,199.417c0,69.028,30.255,130.959,78.189,173.358c10.266,9.088,21.321,17.306,33.091,24.475
			c35.026,21.313,76.148,33.595,120.148,33.595s85.122-12.282,120.148-33.595c11.77-7.161,22.825-15.387,33.091-24.475
			c47.934-42.399,78.189-104.33,78.189-173.358H6.917z"/>
		<path style="fill:#010002;" d="M124.448,3.941c-21.728,16.257-30.084,38.05-19.509,63.899
			c5.877,14.355,36.701,48.836,23.524,63.24c-17.655,19.289,11.014,48.113,28.743,28.743c17.582-19.216,19.062-42,8.202-65.183
			c-5.292-11.282-34.278-45.252-20.443-55.599C165.684,23.539,145.46-11.772,124.448,3.941z"/>
		<path style="fill:#010002;" d="M221.991,3.941c-21.728,16.257-30.084,38.05-19.509,63.899
			c5.877,14.355,36.701,48.836,23.524,63.24c-17.655,19.289,11.014,48.113,28.743,28.743c17.582-19.216,19.062-42,8.202-65.183
			c-5.292-11.282-34.278-45.252-20.443-55.599C263.227,23.539,243.003-11.772,221.991,3.941z"/>
		<path style="fill:#010002;" d="M319.534,3.941c-21.728,16.257-30.084,38.05-19.509,63.899
			c5.877,14.355,36.701,48.836,23.524,63.24c-17.655,19.289,11.014,48.113,28.743,28.743c17.582-19.216,19.061-42,8.202-65.183
			c-5.292-11.282-34.278-45.252-20.443-55.599C360.77,23.539,340.546-11.772,319.534,3.941z"/>
	</g>
</g>
<g>
</g>
<g>
</g>
<g>
</g>
<g>
</g>
<g>
</g>
<g>
</g>
<g>
</g>
<g>
</g>
<g>
</g>
<g>
</g>
<g>
</g>
<g>
</g>
<g>
</g>
<g>
</g>
<g>
</g>
</svg>
